<svg xmlns="http://www.w3.org/2000/svg" shape-rendering="crispEdges" viewBox="0 -.5 16 16"><path stroke="#ff005b" d="M0 0h10m1 0h5M0 1h3m1 0h12"/><path stroke="#ff025b" d="M10 0h1"/><path stroke="#ff0059" d="M3 1h1"/><path stroke="#ff146a" d="M0 2h3m1 0h4m1 0h7M0 3h4m1 0h4m1 0h6"/><path stroke="#fd146a" d="M3 2h1"/><path stroke="#ff146b" d="M8 2h1M4 3h1"/><path stroke="#ff156a" d="M9 3h1"/><path stroke="#ff2980" d="M0 4h16M0 5h16"/><path stroke="#e93f80" d="M0 6h2m4 0h4m4 0h2M0 7h2m4 0h4m4 0h2"/><path stroke="#e97fff" d="M2 6h4m4 0h4M3 7h3m4 0h4"/><path stroke="#e97dff" d="M2 7h1"/><path stroke="#d45480" d="M0 8h2m5 0h3m4 0h2M0 9h2m5 0h3m4 0h2"/><path stroke="#d47fff" d="M2 8h2m8 0h2M2 9h2m8 0h2"/><path stroke="#550080" d="M4 8h2m5 0h1M4 9h2m4 0h2"/><path stroke="#d45481" d="M6 8h1"/><path stroke="#550081" d="M10 8h1"/><path stroke="#d45482" d="M6 9h1"/><path stroke="#be6980" d="M0 10h9m1 0h6M0 11h15"/><path stroke="#be6982" d="M9 10h1"/><path stroke="#be6981" d="M15 11h1"/><path stroke="#a97f80" d="M0 12h4m2 0h4m2 0h3M0 13h1m1 0h2m2 0h2m4 0h1m1 0h2"/><path stroke="#2a0080" d="M4 12h2m4 0h2m-8 1h2m4 0h1"/><path stroke="#a97d80" d="M15 12h1"/><path stroke="#a97f82" d="M1 13h1m7 0h1"/><path stroke="#a97f81" d="M8 13h1"/><path stroke="#2a0081" d="M11 13h1"/><path stroke="#a87f80" d="M13 13h1"/><path stroke="#7e7f80" d="M0 14h4m8 0h3M0 15h4m8 0h4"/><path stroke="#150080" d="M4 14h8m-8 1h2m1 0h5"/><path stroke="#7e7d80" d="M15 14h1"/><path stroke="#150180" d="M6 15h1"/></svg>