<svg xmlns="http://www.w3.org/2000/svg" shape-rendering="crispEdges" fill="none" viewBox="0 0 23 28"><path fill="#9BADB7" d="M0 0h23v28H0z"/><path fill="#A4B7C2" d="M1 1h21v26H1z"/><path fill="#ADC1CC" d="M2 2h19v24H2z"/><path fill="#222034" d="M3 4h1v5H3zm1 4h2v1H4zm3-3h1v3H7zm1-1h2v1H8zm2 1h1v3h-1zM8 8h2v1H8zm5 0h2v1h-2zm2-3h1v3h-1zm-2-1h2v1h-2zm-1 1h1v3h-1zm6 0h1v4h-1zm-1-1h3v1h-3zM4 11h1v7H4zm4 0h1v7H8zm-1 1h1v2H7zm-2 0h1v2H5zm1 2h1v2H6zm4-2h1v5h-1zm1-1h2v1h-2zm0 6h2v1h-2zm2-5h1v5h-1zm2-1h1v7h-1zm1 0h2v1h-2zm2 1h1v5h-1zm-2 5h2v1h-2zM2 20h1v5H2zm1 5h1v1H3zm0-6h1v1H3zm2 1h1v5H5zm2 0h1v5H7zm1 0h1v1H8zm0 2h1v1H8zm2-2h1v5h-1zm2 0h1v5h-1zm1 0h1v1h-1zm0 2h1v1h-1zm0 2h1v1h-1zm2-4h1v5h-1zm1 0h1v1h-1zm1 1h1v1h-1zm-1 1h1v1h-1zm1 1h1v2h-1zm2-4h1v1h-1zm1 1h1v5h-1zm-1 5h1v1h-1z"/></svg>
