<svg xmlns="http://www.w3.org/2000/svg" shape-rendering="crispEdges" viewBox="0 -0.5 32 32"><path stroke="#9badb7" d="M4 2h23M4 3h1m21 0h1M4 4h1m21 0h1M4 5h1m21 0h1M4 6h1m21 0h1M4 7h1m21 0h1M4 8h1m21 0h1M4 9h1m21 0h1M4 10h1m21 0h1M4 11h1m21 0h1M4 12h1m21 0h1M4 13h1m21 0h1M4 14h1m21 0h1M4 15h1m21 0h1M4 16h1m21 0h1M4 17h1m21 0h1M4 18h1m21 0h1M4 19h1m21 0h1M4 20h1m21 0h1M4 21h1m21 0h1M4 22h1m21 0h1M4 23h1m21 0h1M4 24h1m21 0h1M4 25h1m21 0h1M4 26h1m21 0h1M4 27h1m21 0h1M4 28h1m21 0h1M4 29h8m1 0h10m1 0h3"/><path stroke="#a4b7c2" d="M5 3h15m1 0h5M5 4h1m19 0h1M5 5h1m19 0h1M5 6h1m19 0h1M5 7h1m19 0h1M5 8h1m19 0h1M5 9h1m19 0h1M5 10h1m19 0h1M5 11h1m19 0h1M5 12h1m19 0h1M5 13h1m19 0h1M5 14h1m19 0h1M5 15h1m19 0h1M5 16h1m19 0h1M5 17h1m19 0h1M5 18h1m-1 1h1m19 0h1M5 20h1m19 0h1M5 21h1m19 0h1m-1 1h1M5 23h1m19 0h1M5 24h1m19 0h1M5 25h1m19 0h1M5 26h1m19 0h1M5 27h1m19 0h1M5 28h12m1 0h8"/><path stroke="#a4b7c0" d="M20 3h1M5 22h1"/><path stroke="#adc1cc" d="M6 4h19M6 5h19M6 6h1m1 0h4m2 0h3m2 0h2m3 0h1M6 7h1m1 0h3m1 0h2m1 0h1m1 0h2m1 0h2m1 0h2M6 8h1m1 0h3m1 0h2m1 0h1m1 0h2m1 0h2m1 0h2M6 9h1m1 0h3m1 0h2m1 0h1m1 0h2m1 0h2m1 0h2M6 10h1m3 0h2m2 0h3m2 0h2m2 0h2M6 11h19M6 12h19M6 13h2m1 0h3m1 0h2m2 0h2m3 0h3M6 14h2m2 0h1m2 0h1m1 0h2m1 0h1m1 0h2m1 0h2M6 15h2m2 0h1m2 0h1m1 0h2m1 0h1m1 0h2m1 0h2M6 16h2m1 0h1m1 0h1m1 0h1m1 0h2m1 0h1m1 0h2m1 0h2M6 17h2m1 0h1m1 0h1m1 0h1m1 0h2m1 0h1m1 0h2m1 0h2M6 18h2m1 0h3m1 0h1m1 0h2m1 0h1m1 0h2m1 0h2M6 19h2m1 0h3m1 0h2m2 0h2m3 0h3M6 20h19M6 21h1m1 0h15m1 0h1M7 22h2m1 0h1m2 0h1m1 0h1m2 0h1m2 0h3M7 23h2m1 0h1m1 0h2m1 0h1m1 0h2m1 0h1m1 0h2M7 24h2m1 0h1m2 0h1m1 0h1m2 0h1m2 0h3M7 25h2m1 0h1m1 0h2m1 0h1m1 0h2m1 0h1m1 0h2M7 26h2m1 0h1m1 0h2m1 0h1m2 0h1m1 0h1m1 0h2M6 27h1m1 0h10m1 0h4m1 0h1"/><path stroke="#222034" d="M7 6h1m4 0h2m3 0h2m2 0h2M7 7h1m3 0h1m2 0h1m1 0h1m2 0h1m2 0h1M7 8h1m3 0h1m2 0h1m1 0h1m2 0h1M7 9h1m3 0h1m2 0h1m1 0h1m2 0h1m2 0h1M7 10h3m2 0h2m3 0h2m3 0h1M8 13h1m3 0h1m2 0h2m2 0h3M8 14h2m1 0h2m1 0h1m2 0h1m1 0h1m2 0h1M8 15h2m1 0h2m1 0h1m2 0h1m1 0h1m2 0h1M8 16h1m1 0h1m1 0h1m1 0h1m2 0h1m1 0h1m2 0h1M8 17h1m1 0h1m1 0h1m1 0h1m4 0h1m2 0h1M8 18h1m3 0h1m1 0h1m2 0h1m1 0h1m2 0h1M8 19h1m3 0h1m2 0h2m2 0h3M7 21h1m15 0h1M6 22h1m2 0h1m1 0h2m1 0h1m1 0h2m1 0h2m3 0h1M6 23h1m2 0h1m1 0h1m2 0h1m1 0h1m2 0h1m1 0h1m2 0h1M6 24h1m2 0h1m1 0h2m1 0h1m1 0h2m1 0h2m3 0h1M6 25h1m2 0h1m1 0h1m2 0h1m1 0h1m2 0h1m1 0h1m2 0h1M6 26h1m2 0h1m1 0h1m2 0h1m1 0h2m1 0h1m1 0h1m2 0h1M7 27h1m15 0h1"/><path stroke="#222036" d="M23 6h1"/><path stroke="#222134" d="M22 8h1"/><path stroke="#acc1cc" d="M21 10h1m-4 17h1"/><path stroke="#202034" d="M17 17h1"/><path stroke="#a5b7c2" d="M25 18h1"/><path stroke="#a4b5c2" d="M17 28h1"/><path stroke="#99adb7" d="M12 29h1"/><path stroke="#9bafb7" d="M23 29h1"/></svg>